<svg width="27" height="29" viewBox="0 0 27 29" fill="none" xmlns="http://www.w3.org/2000/svg">
<path d="M22.3359 28.1928C22.3359 28.5092 22.5972 28.7682 22.9164 28.7682H25.7603C26.0795 28.7682 26.3408 28.5092 26.3408 28.1928V25.9009H22.336L22.3359 28.1928Z" fill="#CAD3DB"/>
<path d="M25.9637 7.28875C25.7258 6.27609 25.3486 5.27492 24.8551 4.30816C24.6578 3.92267 24.0193 3.92267 23.8221 4.30816C22.9002 6.10891 22.4099 8.02111 22.3486 9.99097H26.3283C26.2989 9.08309 26.1801 8.17707 25.9637 7.28859L25.9637 7.28875Z" fill="#CAD3DB"/>
<path d="M22.3359 11.1421H26.3407V24.7507H22.3359V11.1421Z" fill="#CAD3DB"/>
<path d="M14.8722 21.4043C13.7701 21.4043 12.873 22.2932 12.873 23.3856C12.873 24.4782 13.7701 25.3673 14.8722 25.3673C15.9742 25.3673 16.8706 24.4784 16.8706 23.3856C16.8706 22.2932 15.9742 21.4043 14.8722 21.4043Z" fill="#CAD3DB"/>
<path d="M0 2.05671V27.6683C0 28.276 0.497042 28.7686 1.10988 28.7686H18.2194C18.8324 28.7686 19.3293 28.2759 19.3293 27.6683V2.05671C19.3293 1.30976 19.6331 0.524131 20.055 -0.000976562H2.07559C0.929283 -0.000976562 5.38638e-05 0.92026 5.38638e-05 2.05671H0ZM2.46815 16.2129H16.8636C17.2122 16.2129 17.4945 16.493 17.4945 16.8384C17.4945 17.1838 17.2124 17.4639 16.8636 17.4639L2.46815 17.4637C2.11953 17.4637 1.83723 17.1836 1.83723 16.8382C1.83723 16.493 2.11932 16.2129 2.46815 16.2129V16.2129ZM1.83723 12.4728C1.83723 12.1274 2.11932 11.8473 2.46815 11.8473H16.8636C17.2122 11.8473 17.4945 12.1274 17.4945 12.4728C17.4945 12.8183 17.2124 13.0984 16.8636 13.0984H2.46815C2.11932 13.0984 1.83723 12.8183 1.83723 12.4728ZM10.0506 26.1952H2.46778C2.11915 26.1952 1.83685 25.9151 1.83685 25.5697C1.83685 25.2243 2.11895 24.9442 2.46778 24.9442H10.0506C10.3992 24.9442 10.6815 25.2243 10.6815 25.5697C10.6813 25.9151 10.3992 26.1952 10.0506 26.1952ZM10.0506 21.8296H2.46778C2.11915 21.8296 1.83685 21.5495 1.83685 21.2041C1.83685 20.8587 2.11895 20.5786 2.46778 20.5786H10.0506C10.3992 20.5786 10.6815 20.8587 10.6815 21.2041C10.6813 21.5498 10.3992 21.8296 10.0506 21.8296ZM14.8707 26.6179C13.0724 26.6179 11.6099 25.1679 11.6099 23.3854C11.6099 21.6032 13.0724 20.1533 14.8707 20.1533C16.6683 20.1533 18.1308 21.6032 18.1308 23.3854C18.1308 25.1677 16.6683 26.6179 14.8707 26.6179ZM6.05697 3.11676H12.6433C12.9919 3.11676 13.2742 3.39685 13.2742 3.74226C13.2742 4.08767 12.9921 4.36776 12.6433 4.36776L6.05697 4.36756C5.70834 4.36756 5.42604 4.08747 5.42604 3.74205C5.42604 3.39685 5.70814 3.11676 6.05697 3.11676V3.11676ZM16.8637 7.48213C17.2123 7.48213 17.4946 7.76222 17.4946 8.10764C17.4946 8.45305 17.2125 8.73314 16.8637 8.73314H2.46821C2.11958 8.73314 1.83728 8.45305 1.83728 8.10764C1.83728 7.76222 2.11938 7.48213 2.46821 7.48213H16.8637Z" fill="#CAD3DB"/>
<path d="M24.7493 2.05844V2.92144C24.6158 2.88701 24.4823 2.86968 24.3373 2.86968C23.6697 2.86968 23.0778 3.22073 22.7877 3.78467C21.714 5.87907 21.1742 8.10603 21.1742 10.4073V10.7986H20.5879V2.05804C20.5879 0.970472 21.4468 0.0671318 22.5845 -0.00195312H22.6714C23.8148 -0.00195312 24.7493 0.918645 24.7493 2.05804L24.7493 2.05844Z" fill="#CAD3DB"/>
</svg>
