<svg width="81" height="43" viewBox="0 0 81 43" fill="none" xmlns="http://www.w3.org/2000/svg">
<path d="M7.71169 17.4019L8.16715 17.1266C8.23381 16.7925 8.10051 16.6273 7.77835 16.6273C7.31179 16.6273 7.0785 16.9834 7.0785 17.6919C7.0785 17.9709 7.11553 18.294 7.19329 18.6611C8.01904 19.2081 8.43006 19.9129 8.43006 20.7683C8.43006 21.6236 8.13013 22.2881 7.53396 22.7616C6.93779 23.2352 6.12685 23.4702 5.10855 23.4702C4.68642 23.4702 4.24578 23.4261 3.79032 23.3417C3.31265 23.6427 3.07567 23.8703 3.07567 24.0208C3.07567 24.1713 3.42374 24.2484 4.11618 24.2484H5.77878C8.24121 24.2484 9.47428 25.1258 9.47428 26.8806C9.47428 27.8277 9.10398 28.5766 8.3597 29.1309C7.61542 29.6853 6.45642 29.9606 4.88268 29.9606C2.20178 29.9606 0.861328 29.3842 0.861328 28.2352C0.861328 27.6111 1.27976 27.1816 2.11662 26.943L3.09418 27.3798C3.00531 27.6919 2.96458 27.9892 2.96458 28.2682C2.96458 29.1933 3.66072 29.6559 5.04931 29.6559C5.89727 29.6559 6.54898 29.498 7.00444 29.186C7.45989 28.8739 7.68948 28.4848 7.68948 28.0223C7.68948 27.5597 7.55247 27.2513 7.27475 27.0935C6.99704 26.9356 6.44531 26.8585 5.62326 26.8585H4.04582C3.16824 26.8585 2.53874 26.7117 2.15734 26.4217C1.77594 26.1317 1.5871 25.7719 1.5871 25.3497C1.5871 24.9239 1.7241 24.5678 1.99441 24.2851C2.26473 23.9988 2.74981 23.6464 3.44225 23.2279C2.18326 22.8718 1.55377 22.0568 1.55377 20.7756C1.55377 19.968 1.84631 19.3182 2.43137 18.8226C3.01642 18.327 3.89771 18.081 5.06783 18.081C5.77138 18.081 6.37495 18.2169 6.87484 18.4849C6.80819 18.1948 6.77857 17.9305 6.77857 17.6956C6.77857 17.0935 6.9415 16.6567 7.26735 16.3887C7.59321 16.1207 7.95608 15.9849 8.3597 15.9849C8.76332 15.9849 9.08547 16.0913 9.32986 16.3006C9.57425 16.5098 9.69645 16.7998 9.69645 17.1633C9.69645 17.5304 9.60017 17.802 9.40392 17.9782C9.20767 18.1545 8.97068 18.2462 8.69666 18.2462C8.41895 18.2462 8.19307 18.1728 8.01163 18.0296C7.81908 17.8791 7.7228 17.6735 7.71169 17.4019ZM4.2606 20.4232V21.2932C4.2606 22.0127 4.32354 22.5047 4.44944 22.7616C4.57534 23.0186 4.76419 23.1471 5.01969 23.1471C5.27519 23.1471 5.46033 23.0223 5.57142 22.769C5.68621 22.5157 5.74176 21.9981 5.74176 21.2124V20.4232C5.74176 19.5825 5.68621 19.0318 5.57883 18.7675C5.47145 18.5032 5.29 18.371 5.0345 18.371C4.779 18.371 4.58645 18.5069 4.45685 18.7822C4.32355 19.0575 4.2606 19.6045 4.2606 20.4232Z" fill="white"/>
<path d="M16.7462 18.6939C16.3426 18.6939 15.9908 18.9509 15.6872 19.4685C15.3835 19.9861 15.2317 20.5992 15.2317 21.3077V25.6322H16.387V25.9222H11.3066V25.6322H12.2027V18.5287H11.3066V18.2387H15.2317V19.7879C15.3724 19.2409 15.6427 18.8187 16.0464 18.5213C16.4463 18.224 16.9054 18.0771 17.4127 18.0771C17.9237 18.0771 18.3385 18.2203 18.6569 18.5067C18.9754 18.793 19.1383 19.1968 19.1383 19.7181C19.1383 20.2394 19.0198 20.6396 18.7791 20.9222C18.5384 21.2012 18.1755 21.3407 17.6793 21.3407C17.1832 21.3407 16.8203 21.1792 16.587 20.8561C16.3537 20.5331 16.3241 20.0852 16.4981 19.5162H17.0832C17.3609 18.9692 17.2461 18.6939 16.7462 18.6939Z" fill="white"/>
<path d="M22.046 25.0154C21.3461 24.2995 20.998 23.3047 20.998 22.0308C20.998 20.757 21.3906 19.7805 22.1793 19.1014C22.9643 18.4222 23.9678 18.0845 25.1823 18.0845C27.6448 18.0845 28.8297 19.3106 28.7334 21.7629H24.1418V22.3943C24.1418 23.4479 24.2788 24.2445 24.5491 24.7841C24.8194 25.3238 25.2934 25.5918 25.9673 25.5918C27.2263 25.5918 28.0521 24.9236 28.4409 23.591L28.7334 23.6388C28.5261 24.4133 28.1558 25.0154 27.6188 25.4449C27.0819 25.8744 26.2747 26.091 25.2008 26.091C23.7974 26.0873 22.7458 25.7276 22.046 25.0154ZM24.1566 21.4398H25.834V20.6505C25.834 19.7805 25.7822 19.1858 25.6785 18.8664C25.5748 18.5507 25.3675 18.3892 25.0601 18.3892C24.7491 18.3892 24.5232 18.558 24.3751 18.8958C24.227 19.2335 24.1566 19.8172 24.1566 20.6469V21.4398Z" fill="white"/>
<path d="M32.077 25.0154C31.3772 24.2995 31.0254 23.3047 31.0254 22.0308C31.0254 20.757 31.4179 19.7805 32.2066 19.1014C32.9916 18.4222 33.9951 18.0845 35.2097 18.0845C37.6721 18.0845 38.8571 19.3106 38.7571 21.7629H34.1655V22.3943C34.1655 23.4479 34.3025 24.2445 34.5728 24.7841C34.8431 25.3238 35.3171 25.5918 35.9873 25.5918C37.2463 25.5918 38.072 24.9236 38.4608 23.591L38.7534 23.6388C38.546 24.4133 38.1757 25.0154 37.6388 25.4449C37.1019 25.8744 36.2946 26.091 35.2208 26.091C33.8248 26.0873 32.7769 25.7276 32.077 25.0154ZM34.184 21.4398H35.8614V20.6505C35.8614 19.7805 35.8096 19.1858 35.7059 18.8664C35.6022 18.5507 35.3948 18.3892 35.0875 18.3892C34.7764 18.3892 34.5506 18.558 34.4025 18.8958C34.2543 19.2335 34.184 19.8172 34.184 20.6469V21.4398Z" fill="white"/>
<path d="M41.0049 18.2426H44.93V19.7257C45.104 19.2301 45.3706 18.8336 45.7261 18.5326C46.0853 18.2316 46.6259 18.0811 47.3554 18.0811C49.0365 18.0811 49.8808 18.9805 49.8808 20.7756V25.6323H50.7917V25.9224H46.1853V25.6323H46.8518V20.3865C46.8518 19.7404 46.8074 19.3255 46.7222 19.1346C46.637 18.9474 46.4778 18.852 46.2519 18.852C45.9038 18.852 45.5965 19.0796 45.3336 19.5311C45.067 19.9826 44.9337 20.5333 44.9337 21.1757V25.6323H45.6335V25.9224H41.0049V25.6323H41.901V18.5289H41.0049V18.2426Z" fill="white"/>
<path d="M53.7616 25.0154C53.0617 24.2995 52.71 23.3047 52.71 22.0308C52.71 20.757 53.1025 19.7805 53.8912 19.1014C54.6762 18.4222 55.6797 18.0845 56.8942 18.0845C59.3567 18.0845 60.5416 19.3106 60.4453 21.7629H55.8537V22.3943C55.8537 23.4479 55.9907 24.2445 56.261 24.7841C56.5313 25.3238 57.0053 25.5918 57.6792 25.5918C58.9382 25.5918 59.764 24.9236 60.1528 23.591L60.4453 23.6388C60.238 24.4133 59.8677 25.0154 59.3307 25.4449C58.7938 25.8744 57.9866 26.091 56.9127 26.091C55.513 26.0873 54.4614 25.7276 53.7616 25.0154ZM55.8722 21.4398H57.5497V20.6505C57.5497 19.7805 57.4978 19.1858 57.3941 18.8664C57.2904 18.5507 57.0831 18.3892 56.7757 18.3892C56.4647 18.3892 56.2388 18.558 56.0907 18.8958C55.9426 19.2335 55.8722 19.8172 55.8722 20.6469V21.4398Z" fill="white"/>
<path d="M68.0987 18.6939C67.6988 18.6939 67.3434 18.9509 67.0397 19.4685C66.7361 19.9861 66.5842 20.5992 66.5842 21.3077V25.6322H67.7396V25.9222H62.6592V25.6322H63.5553V18.5287H62.6592V18.2387H66.5842V19.7879C66.725 19.2409 66.9953 18.8187 67.3989 18.5213C67.7988 18.224 68.258 18.0771 68.7653 18.0771C69.2763 18.0771 69.691 18.2203 70.0094 18.5067C70.3279 18.793 70.4908 19.1968 70.4908 19.7181C70.4908 20.2394 70.3723 20.6396 70.1316 20.9222C69.8947 21.2012 69.5281 21.3407 69.0319 21.3407C68.5394 21.3407 68.1728 21.1792 67.9395 20.8561C67.7062 20.5331 67.6766 20.0852 67.8507 19.5162H68.4357C68.7097 18.9692 68.5949 18.6939 68.0987 18.6939Z" fill="white"/>
<path d="M72.0198 18.5327V18.2427H76.741V18.5327H75.8634L77.6371 23.8924L79.5256 18.5327H78.4332V18.2427H80.729V18.5327H79.9144L76.8706 27.2331C76.5114 28.2426 76.1115 28.9511 75.6672 29.3549C75.2228 29.7587 74.6785 29.9606 74.0379 29.9606C73.3973 29.9606 72.8937 29.8138 72.5234 29.5238C72.1531 29.2338 71.9717 28.863 71.9717 28.4115C71.9717 27.9599 72.0902 27.6148 72.3309 27.3799C72.5678 27.1413 72.8826 27.0238 73.2751 27.0238C74.1749 27.0238 74.6267 27.3946 74.6267 28.1361C74.6267 28.2977 74.5933 28.4922 74.5304 28.7162H73.9601C73.8713 28.9621 73.8638 29.1677 73.9268 29.3292C73.9935 29.4907 74.1379 29.5715 74.3674 29.5715C74.8118 29.5715 75.208 29.3549 75.5561 28.9181C75.9042 28.4812 76.2337 27.8167 76.5485 26.9247L76.9076 25.9225H75.4746L72.69 18.529H72.0198V18.5327Z" fill="white"/>
<path d="M40.3386 8.79697C40.2941 8.79697 40.2497 8.78595 40.209 8.75658C40.1016 8.68683 40.0756 8.54366 40.146 8.4372C40.9681 7.24043 41.1014 6.32634 41.2273 5.44161C41.2754 5.12223 41.3198 4.79183 41.4013 4.45409C41.5938 3.63912 41.8382 2.96364 42.1493 2.40564C41.7716 2.35057 41.3939 2.28449 41.0273 2.21841C40.4237 2.11195 39.7979 2.00182 39.1795 1.94676C38.1094 1.85498 36.606 1.92473 35.547 2.79477C35.2767 3.01871 34.9397 3.37847 34.8805 3.83735C34.8619 3.96217 34.7435 4.05028 34.6213 4.03559C34.4954 4.02091 34.4028 3.90343 34.4213 3.77861C34.5028 3.17289 34.9175 2.71768 35.2545 2.44235C36.4357 1.47318 38.0613 1.38875 39.224 1.48787C39.8609 1.54294 40.4978 1.65674 41.1125 1.7632C41.542 1.84029 41.9789 1.91738 42.4196 1.97245C42.6788 1.598 42.9787 1.28597 43.3157 1.03633C43.8526 0.636187 44.6932 0.324143 45.4301 0.643526C45.7078 0.764671 46.004 1.02165 46.0003 1.38508C45.9966 1.67143 45.8004 1.93574 45.4449 2.13031C44.8524 2.45336 44.1303 2.57083 43.1565 2.5121C42.9899 2.50108 42.8195 2.4864 42.6529 2.46805C42.3233 3.01504 42.0641 3.70519 41.8605 4.56055C41.7864 4.87626 41.742 5.18096 41.6938 5.50769C41.5568 6.44381 41.4161 7.41297 40.5348 8.69785C40.4867 8.76392 40.4126 8.79697 40.3386 8.79697ZM42.9454 2.03486C43.0232 2.0422 43.1046 2.04587 43.1824 2.05321C44.06 2.10828 44.7043 2.00549 45.219 1.72649C45.3116 1.67509 45.5337 1.53926 45.5337 1.38141C45.5337 1.25292 45.3893 1.13178 45.2412 1.06937C44.6821 0.830752 44.023 1.08773 43.5897 1.40711C43.3527 1.58332 43.1417 1.79257 42.9454 2.03486Z" fill="white"/>
<path d="M43.0369 8.87422C42.8739 8.87422 42.7517 8.82283 42.6629 8.76042C42.4851 8.6356 42.3814 8.41534 42.3703 8.13634C42.3555 7.71784 42.5073 7.34339 42.6555 6.97995C42.7591 6.72665 42.8591 6.48803 42.8961 6.24207C42.8961 6.23473 42.8962 6.23105 42.8999 6.22371C42.8665 6.23105 42.8221 6.24574 42.7702 6.27511C42 6.73032 41.1743 7.61872 40.567 8.65396C40.5004 8.76409 40.3596 8.8008 40.2486 8.73839C40.1375 8.67599 40.1005 8.53281 40.1634 8.42268C40.8114 7.32136 41.6964 6.37055 42.5333 5.87863C42.8517 5.6914 43.1627 5.72078 43.3035 5.95572C43.3886 6.09155 43.3627 6.24574 43.3553 6.31182C43.3072 6.61285 43.1961 6.88818 43.085 7.15617C42.948 7.48656 42.8221 7.80227 42.8332 8.12165C42.8369 8.25014 42.8739 8.34926 42.9295 8.38597C43.0072 8.44104 43.1702 8.41534 43.3664 8.31255C43.5627 8.20976 43.7552 8.08862 43.9478 7.97114L44.0403 7.9124C44.2255 7.7986 44.4032 7.68113 44.5847 7.55631C44.5143 7.07907 44.6661 6.51373 44.9846 6.15763C45.2771 5.83091 45.6696 5.70976 46.0881 5.8199C46.2214 5.85661 46.325 5.92269 46.388 6.01446C46.4843 6.15763 46.4843 6.34486 46.388 6.5431C46.2028 6.91755 45.8548 7.18186 45.5511 7.41681L45.4437 7.50125C45.3401 7.58201 45.2327 7.66277 45.1253 7.73986C45.1734 7.84265 45.2475 7.96013 45.3623 8.02621C45.4585 8.08127 45.5882 8.10697 45.7807 8.11064C46.3991 8.11798 47.0138 7.90873 47.5026 7.52694C47.5544 7.48656 47.6136 7.4682 47.6803 7.47922C47.7432 7.49023 47.7988 7.52327 47.8358 7.57834C47.8358 7.57834 48.5023 8.32724 52.1719 8.32724H57.4263C57.5559 8.32724 57.6596 8.43002 57.6596 8.55851C57.6596 8.687 57.5559 8.78979 57.4263 8.78979H52.1719C49.1281 8.78979 48.0136 8.28318 47.6322 8.00785C47.0878 8.3823 46.4472 8.56586 45.777 8.5732C45.5881 8.5732 45.3438 8.55117 45.129 8.42635C44.9772 8.33458 44.8439 8.19508 44.7476 8.01152C44.5995 8.11064 44.4514 8.20976 44.2995 8.30154L44.207 8.36028C44.007 8.48509 43.8034 8.60991 43.596 8.72004C43.3664 8.83384 43.185 8.87422 43.0369 8.87422ZM45.8103 6.2384C45.6215 6.2384 45.4623 6.31182 45.329 6.46233C45.1586 6.65323 45.0512 6.94691 45.0327 7.22959C45.0698 7.20022 45.1105 7.17085 45.1475 7.14148L45.2586 7.05704C45.5363 6.84412 45.8251 6.62386 45.9621 6.34486C45.9844 6.29713 45.9881 6.26777 45.9881 6.26042C45.9288 6.24207 45.8696 6.2384 45.8103 6.2384Z" fill="white"/>
<path d="M30.0772 8.87413H26.078C25.9484 8.87413 25.8447 8.77134 25.8447 8.64285C25.8447 8.51436 25.9484 8.41158 26.078 8.41158H30.0772C34.3503 8.41158 35.4093 7.55622 35.4204 7.54888C35.4723 7.50483 35.5389 7.49014 35.6019 7.49381C35.6685 7.50116 35.7278 7.53786 35.7648 7.58926C36.4424 8.56576 37.0645 8.29777 37.0868 8.28309C37.7348 8.08485 38.0421 7.35799 38.1902 6.77796C38.3235 6.26401 38.405 5.72804 38.4827 5.20675C38.5605 4.70381 38.6383 4.18619 38.7642 3.67958C39.0789 2.40205 39.6714 1.44758 40.4823 0.915275C40.5897 0.845525 40.7341 0.874891 40.8045 0.981352C40.8748 1.08781 40.8452 1.23098 40.7378 1.30073C39.838 1.8881 39.4122 2.97841 39.2159 3.78972C39.0974 4.2743 39.0197 4.78457 38.9456 5.27649C38.8641 5.80879 38.7827 6.35579 38.6457 6.89176C38.3902 7.88662 37.9088 8.51804 37.2571 8.7126C37.2534 8.71627 36.3869 9.12376 35.5167 8.03346C35.0242 8.30879 33.5838 8.87413 30.0772 8.87413Z" fill="white"/>
<path d="M16.2766 37.9186L15.9582 38.9282L15.4102 38.7593L16.2729 36.0391L17.2727 36.3511C17.5949 36.4539 17.817 36.6044 17.9318 36.81C18.0466 37.0156 18.0651 37.2505 17.98 37.5148C17.8985 37.7755 17.7467 37.9553 17.5282 38.0545C17.3097 38.1572 17.0431 38.1572 16.7321 38.0581L16.2766 37.9186ZM17.4208 37.3386C17.4653 37.2028 17.4616 37.0853 17.406 36.9899C17.3542 36.8944 17.2431 36.821 17.0728 36.7659L16.6802 36.6448L16.4136 37.4818L16.8061 37.6029C17.1283 37.7057 17.332 37.6176 17.4208 37.3386Z" fill="white"/>
<path d="M21.6636 37.5738L21.2674 39.2001C21.2156 39.4167 21.223 39.5929 21.2933 39.725C21.3637 39.8572 21.4896 39.9453 21.671 39.9893C21.8525 40.0334 22.0006 40.0114 22.1265 39.9269C22.2487 39.8425 22.3376 39.692 22.3894 39.4717L22.7856 37.8455L23.3411 37.9776L22.9449 39.6039C22.8819 39.8609 22.7819 40.0664 22.6412 40.2206C22.5005 40.3748 22.3376 40.4739 22.145 40.518C21.9525 40.562 21.7488 40.562 21.534 40.5106C21.1971 40.4299 20.9564 40.2683 20.8046 40.0187C20.6527 39.7727 20.6231 39.457 20.7157 39.0716L21.1119 37.4453L21.6636 37.5738Z" fill="white"/>
<path d="M27.3847 41.652L26.9107 40.4442L26.6626 40.4039L26.4738 41.4978L25.9072 41.4024L26.3886 38.5903L27.4699 38.7739C27.7994 38.829 28.0364 38.9501 28.1808 39.141C28.3252 39.3282 28.3771 39.5522 28.3326 39.8128C28.2956 40.0257 28.2067 40.1946 28.0623 40.3157C27.9179 40.4369 27.7291 40.5066 27.4958 40.514L28.0105 41.7548L27.3847 41.652ZM26.7256 40.0147L27.1921 40.0918C27.5143 40.1469 27.7031 40.0331 27.7513 39.7467C27.7735 39.6109 27.7513 39.5008 27.6883 39.409C27.6217 39.3209 27.5069 39.2621 27.3403 39.2328L26.8737 39.1557L26.7256 40.0147Z" fill="white"/>
<path d="M32.0025 39.8499L31.9248 40.5841L32.9356 40.6906L32.8912 41.1237L31.8803 41.0173L31.7989 41.7809L32.9319 41.8983L32.8838 42.3536L31.1768 42.1773L31.4767 39.3433L33.1837 39.5195L33.1356 39.971L32.0025 39.8499Z" fill="white"/>
<path d="M42.2744 42.6839L41.7004 42.6876L40.4007 40.7603L40.4155 42.6986L39.8416 42.7023L39.8193 39.8536L40.3933 39.8499L41.693 41.7955L41.6782 39.8425L42.2522 39.8389L42.2744 42.6839Z" fill="white"/>
<path d="M47.3033 41.8357L46.1554 41.9238L45.9962 42.5112L45.3926 42.5589L46.2257 39.6661L46.8812 39.6147L48.155 42.3423L47.5514 42.39L47.3033 41.8357ZM47.1144 41.4172L46.5997 40.2498L46.2702 41.4833L47.1144 41.4172Z" fill="white"/>
<path d="M52.7723 38.8877L52.839 39.3356L52.054 39.4494L52.402 41.8245L51.8318 41.9053L51.4837 39.5301L50.7024 39.6439L50.6357 39.1961L52.7723 38.8877Z" fill="white"/>
<path d="M56.2119 38.2567L56.5674 39.8904C56.6155 40.1106 56.697 40.2611 56.8192 40.3492C56.9377 40.4373 57.0932 40.463 57.2746 40.4227C57.4561 40.3859 57.582 40.3015 57.656 40.1694C57.7301 40.0409 57.7412 39.8647 57.6968 39.6481L57.3413 38.0144L57.9004 37.897L58.2559 39.5306C58.3115 39.7876 58.3115 40.0152 58.2522 40.2134C58.193 40.4116 58.0893 40.5732 57.9375 40.6943C57.7856 40.8191 57.6005 40.9036 57.382 40.9476C57.0451 41.021 56.7525 40.977 56.5081 40.8191C56.2637 40.6613 56.0971 40.3896 56.0156 40.0042L55.6602 38.3705L56.2119 38.2567Z" fill="white"/>
<path d="M63.1477 39.4715L62.1923 38.5868L61.948 38.6565L62.259 39.7248L61.7073 39.8827L60.9111 37.1441L61.9628 36.843C62.2849 36.7513 62.5515 36.7586 62.7626 36.8651C62.9774 36.9715 63.1181 37.1514 63.1921 37.4047C63.2514 37.6103 63.244 37.8012 63.1699 37.9737C63.0959 38.1463 62.9551 38.2858 62.7478 38.3959L63.755 39.2953L63.1477 39.4715ZM61.8406 38.2821L62.296 38.1536C62.6108 38.0618 62.7293 37.8819 62.6478 37.6029C62.6108 37.4708 62.5404 37.379 62.4441 37.3276C62.3442 37.2762 62.2146 37.2725 62.0553 37.3203L61.5999 37.4488L61.8406 38.2821Z" fill="white"/>
<path d="M66.5137 35.8667L66.7655 36.5606L67.7246 36.2191L67.8727 36.6303L66.9136 36.9717L67.1766 37.6949L68.2504 37.3131L68.4059 37.7426L66.7914 38.3153L65.8213 35.6318L67.4358 35.0591L67.5913 35.4849L66.5137 35.8667Z" fill="white"/>
</svg>
