<svg width="13" height="12" viewBox="0 0 13 12" fill="none" xmlns="http://www.w3.org/2000/svg">
<path d="M6.21468 0.878116C6.30449 0.601723 6.69551 0.601722 6.78532 0.878115L7.89199 4.28409C7.93215 4.4077 8.04734 4.49139 8.1773 4.49139H11.7586C12.0492 4.49139 12.17 4.86327 11.9349 5.03409L9.0376 7.13911C8.93245 7.2155 8.88846 7.35091 8.92862 7.47452L10.0353 10.8805C10.1251 11.1569 9.80875 11.3867 9.57364 11.2159L6.67634 9.1109C6.57119 9.0345 6.42881 9.0345 6.32366 9.1109L3.42637 11.2159C3.19125 11.3867 2.87491 11.1569 2.96471 10.8805L4.07138 7.47452C4.11154 7.35091 4.06755 7.2155 3.9624 7.13911L1.0651 5.03409C0.829989 4.86327 0.950821 4.49139 1.24144 4.49139H4.8227C4.95266 4.49139 5.06785 4.4077 5.10801 4.28409L6.21468 0.878116Z" fill="#F3B705"/>
</svg>
